# File produced by Open Asset Import Library (http://www.assimp.sf.net)
# (assimp v4.1.3154142419)

mtllib object.mtl

# 74 vertex positions
v  0.1939506828784943 0.0778743103146553 0.5360261201858521
v  0.2087274640798569 0.04618556052446365 0.5360294580459595
v  0.1939543932676315 0.07786714285612106 0.4516735672950745
v  0.208731085062027 0.04617834091186523 0.4516769051551819
v  0.1705918163061142 0.06698185950517654 0.5360259413719177
v  0.1853685826063156 0.03529312089085579 0.5360293388366699
v  0.1705955415964127 0.06697475910186768 0.4516734480857849
v  0.1853722631931305 0.03528594225645065 0.4516767859458923
v  0.1896506994962692 0.05661518126726151 0.5568936467170715
v  0.1801255792379379 0.05223076418042183 0.5568992495536804
v  0.18116395175457 0.05045676231384277 0.5569055080413818
v  0.1801426112651825 0.05216687172651291 0.5359278917312622
v  0.1896677315235138 0.05655128881335258 0.5359222292900085
v  0.1811809837818146 0.05039286613464355 0.5359340906143188
v  0.182528480887413 0.04891942068934441 0.556911289691925
v  0.1825455129146576 0.04885552823543549 0.5359398722648621
v  0.1841666996479034 0.04767782613635063 0.5569164156913757
v  0.184183731675148 0.04761393368244171 0.5359449982643127
v  0.1860156655311584 0.04677968472242355 0.5569206476211548
v  0.186032697558403 0.04671579226851463 0.5359492301940918
v  0.1880043298006058 0.04625951871275902 0.5569238662719727
v  0.1880213618278503 0.0461956262588501 0.5359524488449097
v  0.1900562644004822 0.04613731801509857 0.556925892829895
v  0.1900732964277267 0.04607342556118965 0.535954475402832
v  0.1920926123857498 0.04641776904463768 0.5569267272949219
v  0.1921096444129944 0.04635387659072876 0.5359552502632141
v  0.1940351128578186 0.04709010571241379 0.5569262504577637
v  0.1940521448850632 0.04702621325850487 0.5359548330307007
v  0.1958091259002686 0.04812848567962646 0.5569245219230652
v  0.1958261579275131 0.04806458950042725 0.5359530448913574
v  0.1973464787006378 0.04949300363659859 0.5569216012954712
v  0.1973635107278824 0.04942911118268967 0.5359501838684082
v  0.1985880881547928 0.051131222397089 0.5569176077842712
v  0.1986051201820374 0.05106732994318008 0.5359461903572083
v  0.1994862407445908 0.05298018455505371 0.5569127202033997
v  0.1995032727718353 0.05291629210114479 0.5359413027763367
v  0.2000064104795456 0.05496884137392044 0.556907057762146
v  0.2000234425067902 0.05490494892001152 0.535935640335083
v  0.2001286149024963 0.05702076852321625 0.5569009184837341
v  0.2001456469297409 0.05695687234401703 0.5359295010566711
v  0.1998481601476669 0.05905710160732269 0.5568944811820984
v  0.1998652070760727 0.05899320915341377 0.5359230637550354
v  0.1991758346557617 0.06099959835410118 0.5568880438804626
v  0.1991928666830063 0.06093570590019226 0.5359166264533997
v  0.1981374472379684 0.06277360022068024 0.5568817853927612
v  0.198154479265213 0.06270971149206161 0.5359103679656982
v  0.1967729330062866 0.06431093811988831 0.556876003742218
v  0.1967899650335312 0.06424704939126968 0.535904586315155
v  0.1951347142457962 0.06555254012346268 0.5568708777427673
v  0.1951517462730408 0.06548864394426346 0.5358994603157043
v  0.19328573346138 0.06645067781209946 0.5568666458129883
v  0.1933027654886246 0.06638678163290024 0.5358952283859253
v  0.1912970691919327 0.06697084754705429 0.5568634271621704
v  0.1913141012191772 0.06690695136785507 0.5358920097351074
v  0.1892451345920563 0.06709304451942444 0.556861400604248
v  0.189262181520462 0.06702915579080582 0.5358899831771851
v  0.1872088015079498 0.06681259721517563 0.5568605661392212
v  0.1872258335351944 0.06674870103597641 0.535889208316803
v  0.1852662861347198 0.06614025682210922 0.5568610429763794
v  0.1852833330631256 0.0660763680934906 0.5358896255493164
v  0.1834922730922699 0.06510187685489655 0.5568628311157227
v  0.1835093051195145 0.06503798812627792 0.5358913540840149
v  0.1819549202919006 0.06373735517263412 0.5568656921386719
v  0.1819719672203064 0.0636734664440155 0.5358942747116089
v  0.1807133257389069 0.06209914013743401 0.5568696856498718
v  0.1807303577661514 0.06203524768352509 0.5358982682228088
v  0.1798151731491089 0.060250174254179 0.5568745732307434
v  0.1798322051763535 0.06018628180027008 0.5359031558036804
v  0.1792950034141541 0.05826152116060257 0.5568802356719971
v  0.1793120354413986 0.05819762870669365 0.5359088182449341
v  0.1791727840900421 0.05620959773659706 0.5568863749504089
v  0.1791898310184479 0.05614570528268814 0.5359149575233459
v  0.1794532388448715 0.05417325720191002 0.5568928122520447
v  0.1794702708721161 0.0541093647480011 0.5359213948249817

# 0 UV coordinates

# 68 vertex normals
vn 0.9063079357147217 0.4226180613040924 3.293156623840332e-06
vn -4.333628385211341e-05 8.524845179636031e-05 1
vn 4.334888944867998e-05 -8.527551108272746e-05 -1
vn -0.9063079357147217 -0.42261803150177 -3.278255462646484e-06
vn 0.4226180613040924 -0.9063079357147217 9.557604789733887e-05
vn -0.4226180613040924 0.9063079357147217 -9.563565254211426e-05
vn -0.0008122967556118965 0.003046657657250762 0.9999951124191284
vn 0.0008122966974042356 -0.003046657890081406 -0.9999949932098389
vn -0.9083868265151978 -0.4181303977966309 0.000536009669303894
vn -0.8451569080352783 -0.534517765045166 0.0009419918060302734
vn -0.8087445497512817 -0.588158905506134 0.001134976744651794
vn -0.7148336172103882 -0.6992928981781006 0.001549869775772095
vn -0.6702298521995544 -0.7421516180038452 0.001716673374176025
vn -0.5544943809509277 -0.832184910774231 0.002084985375404358
vn -0.4758314490318298 -0.8795334696769714 0.002293139696121216
vn -0.3908871114253998 -0.9204353094100952 0.002486750483512878
vn -0.3016560673713684 -0.953413188457489 0.002659708261489868
vn -0.2105281949043274 -0.9775837659835815 0.002807363867759705
vn -0.1199792921543121 -0.9927720427513123 0.002927184104919434
vn 0.02649104595184326 -0.99964439868927 0.003067106008529663
vn 0.0882469117641449 -0.9960936903953552 0.003106445074081421
vn 0.2318608164787292 -0.9727438688278198 0.003151983022689819
vn 0.2944063246250153 -0.9556751847267151 0.003150776028633118
vn 0.418129950761795 -0.9083818793296814 0.003107175230979919
vn 0.5345178842544556 -0.8451518416404724 0.003009095788002014
vn 0.5881595015525818 -0.8087396621704102 0.002941712737083435
vn 0.6992941498756409 -0.7148288488388062 0.002745881676673889
vn 0.7421531677246094 -0.6702250242233276 0.002644807100296021
vn 0.8321871757507324 -0.5544900894165039 0.002365320920944214
vn 0.8795360922813416 -0.4758272767066956 0.002164140343666077
vn 0.9204383492469788 -0.390883207321167 0.001938551664352417
vn 0.9534165859222412 -0.3016524314880371 0.001693502068519592
vn 0.9775875806808472 -0.2105249166488647 0.001435503363609314
vn 0.9927761554718018 -0.1199764311313629 0.001171976327896118
vn 0.9996488094329834 0.0264933705329895 0.0007313042879104614
vn 0.9960982203483582 0.08824895322322845 0.0005402714014053345
vn 0.9727485775947571 0.2318622022867203 8.375942707061768e-05
vn 0.9556800127029419 0.2944074273109436 -0.0001206696033477783
vn 0.9083868861198425 0.4181304275989532 -0.0005360245704650879
vn 0.8451568484306335 0.5345176458358765 -0.0009419918060302734
vn 0.8087446689605713 0.5881589651107788 -0.001134976744651794
vn 0.7148337364196777 0.6992928385734558 -0.001549854874610901
vn 0.6702299118041992 0.7421517372131348 -0.001716673374176025
vn 0.5544945001602173 0.832184910774231 -0.002084985375404358
vn 0.4758315682411194 0.8795334100723267 -0.002293139696121216
vn 0.3908871114253998 0.9204353094100952 -0.002486750483512878
vn 0.3016559481620789 0.953413188457489 -0.002659693360328674
vn 0.2105282247066498 0.9775838851928711 -0.002807348966598511
vn 0.1199793368577957 0.992772102355957 -0.002927184104919434
vn -0.02649098634719849 0.99964439868927 -0.003067106008529663
vn -0.0882469117641449 0.99609375 -0.003106459975242615
vn -0.2318608015775681 0.9727437496185303 -0.003151968121528625
vn -0.2944063246250153 0.9556751251220703 -0.003150776028633118
vn -0.418129950761795 0.9083819389343262 -0.003107175230979919
vn -0.5345178842544556 0.8451519012451172 -0.003009095788002014
vn -0.5881595015525818 0.8087397217750549 -0.002941712737083435
vn -0.6992940902709961 0.7148287892341614 -0.002745881676673889
vn -0.7421531677246094 0.6702250838279724 -0.002644822001457214
vn -0.8321871757507324 0.5544900894165039 -0.002365335822105408
vn -0.8795361518859863 0.4758272767066956 -0.002164140343666077
vn -0.9204383492469788 0.3908832669258118 -0.001938551664352417
vn -0.9534164667129517 0.3016524314880371 -0.001693502068519592
vn -0.9775875210762024 0.21052485704422 -0.001435503363609314
vn -0.992776095867157 0.1199764311313629 -0.001171976327896118
vn -0.9996488094329834 -0.0264933705329895 -0.0007312893867492676
vn -0.9960982203483582 -0.08824895322322845 -0.0005402714014053345
vn -0.9727486371994019 -0.2318622320890427 -8.375942707061768e-05
vn -0.9556800127029419 -0.2944074273109436 0.0001206696033477783

# Mesh '' with 12 faces
usemtl $Material_0
f  1//1 2//1 3//1
f  3//1 2//1 4//1
f  2//2 1//2 5//2
f  2//2 5//2 6//2
f  3//3 4//3 7//3
f  7//3 4//3 8//3
f  7//4 8//4 5//4
f  5//4 8//4 6//4
f  4//5 2//5 8//5
f  8//5 2//5 6//5
f  1//6 3//6 7//6
f  1//6 7//6 5//6

# Mesh '' with 128 faces
usemtl $Material_1
f  9//7 10//7 11//7
f  12//8 13//8 14//8
f  10//9 12//9 11//10
f  12//9 14//11 11//10
f  9//7 11//7 15//7
f  14//8 13//8 16//8
f  11//10 14//11 15//12
f  14//11 16//13 15//12
f  9//7 15//7 17//7
f  16//8 13//8 18//8
f  15//12 16//13 17//14
f  16//13 18//15 17//14
f  9//7 17//7 19//7
f  18//8 13//8 20//8
f  17//14 18//15 19//16
f  18//15 20//17 19//16
f  9//7 19//7 21//7
f  20//8 13//8 22//8
f  19//16 20//17 21//18
f  20//17 22//19 21//18
f  9//7 21//7 23//7
f  22//8 13//8 24//8
f  21//18 22//19 23//20
f  22//19 24//21 23//20
f  9//7 23//7 25//7
f  24//8 13//8 26//8
f  23//20 24//21 25//22
f  24//21 26//23 25//22
f  9//7 25//7 27//7
f  26//8 13//8 28//8
f  25//22 26//23 27//24
f  26//23 28//24 27//24
f  9//7 27//7 29//7
f  28//8 13//8 30//8
f  27//24 28//24 29//25
f  28//24 30//26 29//25
f  9//7 29//7 31//7
f  30//8 13//8 32//8
f  29//25 30//26 31//27
f  30//26 32//28 31//27
f  9//7 31//7 33//7
f  32//8 13//8 34//8
f  31//27 32//28 33//29
f  32//28 34//30 33//29
f  9//7 33//7 35//7
f  34//8 13//8 36//8
f  33//29 34//30 35//31
f  34//30 36//32 35//31
f  9//7 35//7 37//7
f  36//8 13//8 38//8
f  35//31 36//32 37//33
f  36//32 38//34 37//33
f  9//7 37//7 39//7
f  38//8 13//8 40//8
f  37//33 38//34 39//35
f  38//34 40//36 39//35
f  9//7 39//7 41//7
f  40//8 13//8 42//8
f  39//35 40//36 41//37
f  40//36 42//38 41//37
f  9//7 41//7 43//7
f  42//8 13//8 44//8
f  41//37 42//38 43//39
f  42//38 44//39 43//39
f  9//7 43//7 45//7
f  44//8 13//8 46//8
f  43//39 44//39 45//40
f  44//39 46//41 45//40
f  9//7 45//7 47//7
f  46//8 13//8 48//8
f  45//40 46//41 47//42
f  46//41 48//43 47//42
f  9//7 47//7 49//7
f  48//8 13//8 50//8
f  47//42 48//43 49//44
f  48//43 50//45 49//44
f  9//7 49//7 51//7
f  50//8 13//8 52//8
f  49//44 50//45 51//46
f  50//45 52//47 51//46
f  9//7 51//7 53//7
f  52//8 13//8 54//8
f  51//46 52//47 53//48
f  52//47 54//49 53//48
f  9//7 53//7 55//7
f  54//8 13//8 56//8
f  53//48 54//49 55//50
f  54//49 56//51 55//50
f  9//7 55//7 57//7
f  56//8 13//8 58//8
f  55//50 56//51 57//52
f  56//51 58//53 57//52
f  9//7 57//7 59//7
f  58//8 13//8 60//8
f  57//52 58//53 59//54
f  58//53 60//54 59//54
f  9//7 59//7 61//7
f  60//8 13//8 62//8
f  59//54 60//54 61//55
f  60//54 62//56 61//55
f  9//7 61//7 63//7
f  62//8 13//8 64//8
f  61//55 62//56 63//57
f  62//56 64//58 63//57
f  9//7 63//7 65//7
f  64//8 13//8 66//8
f  63//57 64//58 65//59
f  64//58 66//60 65//59
f  9//7 65//7 67//7
f  66//8 13//8 68//8
f  65//59 66//60 67//61
f  66//60 68//62 67//61
f  9//7 67//7 69//7
f  68//8 13//8 70//8
f  67//61 68//62 69//63
f  68//62 70//64 69//63
f  9//7 69//7 71//7
f  70//8 13//8 72//8
f  69//63 70//64 71//65
f  70//64 72//66 71//65
f  9//7 71//7 73//7
f  72//8 13//8 74//8
f  71//65 72//66 73//67
f  72//66 74//68 73//67
f  9//7 73//7 10//7
f  74//8 13//8 12//8
f  73//67 74//68 10//9
f  74//68 12//9 10//9

