{
  "accessors": [
    {
      "bufferView": 1,
      "componentType": 5126,
      "count": 4998,
      "max": [
        4.1074533462524414,
        2.6081695556640625,
        10.443867683410645
      ],
      "min": [
        -4.1310677528381348,
        -1.6073454618453979,
        0.0024144635535776615
      ],
      "type": "VEC3"
    },
    {
      "bufferView": 1,
      "byteOffset": 59976,
      "componentType": 5126,
      "count": 4998,
      "max": [
        0.99994724988937378,
        0.99705696105957031,
        0.96942496299743652
      ],
      "min": [
        -0.99965286254882812,
        -0.99996817111968994,
        -0.99991953372955322
      ],
      "type": "VEC3"
    },
    {
      "bufferView": 2,
      "componentType": 5126,
      "count": 4998,
      "max": [
        1,
        1,
        1,
        1
      ],
      "min": [
        1,
        1,
        1,
        1
      ],
      "type": "VEC4"
    },
    {
      "bufferView": 0,
      "componentType": 5125,
      "count": 5016,
      "max": [
        4997
      ],
      "min": [
        0
      ],
      "type": "SCALAR"
    }
  ],
  "asset": {
    "extras": {
      "author": "timmytaco131 (https://sketchfab.com/timmytaco131)",
      "license": "CC-BY-4.0 (http://creativecommons.org/licenses/by/4.0/)",
      "source": "https://sketchfab.com/3d-models/rigged-character-c290b7b05d5b4cfe985be16c54359cdc",
      "title": "Rigged character"
    },
    "generator": "Sketchfab-6.22.0",
    "version": "2.0"
  },
  "bufferViews": [
    {
      "buffer": 0,
      "byteLength": 20064,
      "byteOffset": 0,
      "name": "floatBufferViews",
      "target": 34963
    },
    {
      "buffer": 0,
      "byteLength": 119952,
      "byteOffset": 20064,
      "byteStride": 12,
      "name": "floatBufferViews",
      "target": 34962
    },
    {
      "buffer": 0,
      "byteLength": 79968,
      "byteOffset": 140016,
      "byteStride": 16,
      "name": "floatBufferViews",
      "target": 34962
    }
  ],
  "buffers": [
    {
      "byteLength": 219984,
      "uri": "scene.bin"
    }
  ],
  "materials": [
    {
      "doubleSided": true,
      "emissiveFactor": [
        0,
        0,
        0
      ],
      "name": "Character",
      "pbrMetallicRoughness": {
        "baseColorFactor": [
          0,
          0.34509798884391785,
          0.80000001192092896,
          1
        ],
        "metallicFactor": 0,
        "roughnessFactor": 0.20000000000000001
      }
    }
  ],
  "meshes": [
    {
      "primitives": [
        {
          "attributes": {
            "COLOR_0": 2,
            "NORMAL": 1,
            "POSITION": 0
          },
          "indices": 3,
          "material": 0,
          "mode": 4
        }
      ]
    }
  ],
  "nodes": [
    {
      "children": [
        1
      ],
      "name": "RootNode (gltf orientation matrix)",
      "rotation": [
        -0.70710678118654746,
        -0,
        -0,
        0.70710678118654757
      ]
    },
    {
      "children": [
        2
      ],
      "name": "RootNode (model correction matrix)"
    },
    {
      "children": [
        3
      ],
      "name": "e5d2fd38962d4a03b091c0699b666fb9.3ds"
    },
    {
      "mesh": 0,
      "name": ""
    }
  ],
  "scene": 0,
  "scenes": [
    {
      "name": "OSG_Scene",
      "nodes": [
        0
      ]
    }
  ]
}

